<svg xmlns="http://www.w3.org/2000/svg" width="32" height="32" viewBox="0 0 8.467 8.467"><g transform="translate(229.81 -96.521)"><path d="m -225.3565,97.049108 c -0.13882,0.413202 -0.61569,0.527609 -0.32743,0.831295 l 2.64851,2.868597 -2.64851,2.87042 c -0.0537,0.40637 0.15708,0.91397 0.72397,0.66759 l 2.95774,-3.2033 c 0.17364,-0.18866 0.17364,-0.47893 0,-0.66759 l -2.95774,-3.2033 c -0.10026,-0.112252 -0.2463,-0.172547 -0.39654,-0.163712 z" color="#000" font-family="sans-serif" font-weight="400" overflow="visible" white-space="normal" style="line-height:normal;font-variant-ligatures:normal;font-variant-position:normal;font-variant-caps:normal;font-variant-numeric:normal;font-variant-alternates:normal;font-feature-settings:normal;text-indent:0;text-align:start;text-decoration-line:none;text-decoration-style:solid;text-decoration-color:#000;text-transform:none;text-orientation:mixed;shape-padding:0;isolation:auto;mix-blend-mode:normal"/><path d="m -228.8072,97.049108 c -0.21635,0.397695 -0.22802,0.388048 -0.32742,0.831295 l 2.6485,2.868597 -2.6485,2.87042 c -0.0226,0.4684 0.15708,0.94483 0.72398,0.66759 l 2.95773,-3.2033 c 0.17364,-0.18866 0.17364,-0.47893 0,-0.66759 l -2.95773,-3.2033 c -0.10026,-0.112254 -0.24631,-0.172549 -0.39656,-0.163712 z" color="#000" font-family="sans-serif" font-weight="400" overflow="visible" white-space="normal" style="line-height:normal;font-variant-ligatures:normal;font-variant-position:normal;font-variant-caps:normal;font-variant-numeric:normal;font-variant-alternates:normal;font-feature-settings:normal;text-indent:0;text-align:start;text-decoration-line:none;text-decoration-style:solid;text-decoration-color:#000;text-transform:none;text-orientation:mixed;shape-padding:0;isolation:auto;mix-blend-mode:normal"/><path fill="#00c853" d="M-225.32921 97.047288a.49288397.49288397 0 0 0-.48569.498414v6.408428a.49296.49296 0 1 0 .98592 0v-6.408428a.49288397.49288397 0 0 0-.50023-.498414zM-228.77991 97.047288a.49288397.49288397 0 0 0-.48567.498414v6.408428a.49295595.49295595 0 1 0 .9859 0v-6.408428a.49288397.49288397 0 0 0-.50023-.498414z" color="#000" font-family="sans-serif" font-weight="400" overflow="visible" white-space="normal" style="line-height:normal;font-variant-ligatures:normal;font-variant-position:normal;font-variant-caps:normal;font-variant-numeric:normal;font-variant-alternates:normal;font-feature-settings:normal;text-indent:0;text-align:start;text-decoration-line:none;text-decoration-style:solid;text-decoration-color:#000;text-transform:none;text-orientation:mixed;shape-padding:0;isolation:auto;mix-blend-mode:normal"/></g></svg>